<svg width="142" height="32" viewBox="0 0 142 32" fill="none" xmlns="http://www.w3.org/2000/svg">
<rect width="142" height="32" rx="3" fill="black"/>
<path d="M31.1355 13.103L28.2837 15.9226V14.2146L32 10.5402L31.1355 9.68541L28.2837 12.505V8H27.0618V12.5035L24.2131 9.68692L23.3485 10.5402L27.0618 14.2115V15.9196L24.2131 13.103L20.9321 9.85908V8H19.7102V9.86814L16 13.5365L16.8645 14.3913L19.7102 11.5762V13.2843L16 16.9541L16.8645 17.8074L19.7102 14.9938V24H20.9321V14.9848L23.7869 17.8074L24.6499 16.9526L20.9321 13.2767V11.5687L23.7869 14.3913V14.3897L27.0618 17.6292V24H28.2837V17.6307L32 13.9578L31.1355 13.103Z" fill="white"/>
<path d="M41.4027 11.7273H40V19H41.4027V11.7273Z" fill="white"/>
<path d="M47.0206 15.6051C47.0206 14.9553 47.3402 14.6108 47.8764 14.6108C48.2812 14.6108 48.679 14.8345 48.679 15.5305V19H50.0568V15.5412C50.0568 14.0426 49.3182 13.4744 48.402 13.4744C47.674 13.4744 47.1058 13.8544 46.8537 14.2983H46.7969C46.5661 13.7976 46.1009 13.4744 45.4368 13.4744C44.7621 13.4744 44.2791 13.826 44.0163 14.2379H43.9702V13.5455H42.6207V19H43.9986V15.6229C43.9986 14.9375 44.3999 14.6108 44.8544 14.6108C45.3303 14.6108 45.6747 14.8807 45.6747 15.5412V19H47.0206V15.6051Z" fill="white"/>
<path d="M51.2438 21.0455H52.6216V18.3537H52.6855C52.8702 18.7301 53.2999 19.0959 54.0243 19.0959C55.2424 19.0959 56.1941 18.098 56.1941 16.2763C56.1941 14.4332 55.2033 13.4744 54.0208 13.4744C53.2928 13.4744 52.8702 13.8473 52.6855 14.2202H52.6039V13.5455H51.2438V21.0455ZM54.8837 16.2727C54.8837 17.2919 54.4682 17.9737 53.6586 17.9737C52.8134 17.9737 52.4938 17.228 52.4938 16.2727C52.4938 15.3104 52.8205 14.593 53.6586 14.593C54.4718 14.593 54.8837 15.2571 54.8837 16.2727Z" fill="white"/>
<path d="M59.5215 19.103C61.0875 19.103 62.0605 17.9418 62.0605 16.2834C62.0605 14.6143 61.0875 13.4744 59.5215 13.4744C57.959 13.4744 56.9824 14.6143 56.9824 16.2834C56.9824 17.9418 57.959 19.103 59.5215 19.103ZM59.5215 17.9737C58.6621 17.9737 58.3034 17.2493 58.3034 16.2834C58.3034 15.3139 58.6621 14.593 59.5215 14.593C60.3844 14.593 60.7395 15.3139 60.7395 16.2834C60.7395 17.2493 60.3844 17.9737 59.5215 17.9737Z" fill="white"/>
<path d="M66.4382 13.6484C66.2678 13.549 65.9695 13.4709 65.6854 13.4709C65.1527 13.4709 64.5952 13.7656 64.4389 14.3196H64.3608V13.5455H63.0114V19H64.3892V15.907C64.3963 15.3033 64.8473 14.7315 65.5007 14.7315C65.7244 14.7315 65.9339 14.8026 66.0085 14.8452L66.4382 13.6484Z" fill="white"/>
<path d="M70.0488 13.5455H69.0971V12.3807H67.7193V13.5455H67.041V14.5682H67.7193V17.5405C67.7193 18.4993 68.4366 19.071 69.264 19.071C69.7683 19.071 70.1127 18.9751 70.2157 18.9325L69.9991 17.8707C69.9068 17.8956 69.7754 17.9134 69.6475 17.9134C69.3457 17.9134 69.0971 17.8388 69.0971 17.331V14.5682H70.0488V13.5455Z" fill="white"/>
<path d="M76.4746 13.5455H75.5229V12.3807H74.1451V13.5455H73.4668V14.5682H74.1451V17.5405C74.1451 18.4993 74.8624 19.071 75.6898 19.071C76.1941 19.071 76.5385 18.9751 76.6415 18.9325L76.4249 17.8707C76.3326 17.8956 76.2012 17.9134 76.0733 17.9134C75.7715 17.9134 75.5229 17.8388 75.5229 17.331V14.5682H76.4746V13.5455Z" fill="white"/>
<path d="M79.7363 19.103C81.3024 19.103 82.2754 17.9418 82.2754 16.2834C82.2754 14.6143 81.3024 13.4744 79.7363 13.4744C78.1738 13.4744 77.1973 14.6143 77.1973 16.2834C77.1973 17.9418 78.1738 19.103 79.7363 19.103ZM79.7363 17.9737C78.877 17.9737 78.5183 17.2493 78.5183 16.2834C78.5183 15.3139 78.877 14.593 79.7363 14.593C80.5993 14.593 80.9544 15.3139 80.9544 16.2834C80.9544 17.2493 80.5993 17.9737 79.7363 17.9737Z" fill="white"/>
<path d="M90.2663 14.7741H87.4574V12.9062H90.7528V11.7273H86.0547V19H87.4574V15.9496H90.2663V14.7741Z" fill="white"/>
<path d="M93.7207 19.103C95.2868 19.103 96.2598 17.9418 96.2598 16.2834C96.2598 14.6143 95.2868 13.4744 93.7207 13.4744C92.1582 13.4744 91.1816 14.6143 91.1816 16.2834C91.1816 17.9418 92.1582 19.103 93.7207 19.103ZM93.7207 17.9737C92.8613 17.9737 92.5027 17.2493 92.5027 16.2834C92.5027 15.3139 92.8613 14.593 93.7207 14.593C94.5836 14.593 94.9387 15.3139 94.9387 16.2834C94.9387 17.2493 94.5836 17.9737 93.7207 17.9737Z" fill="white"/>
<path d="M100.637 13.6484C100.467 13.549 100.169 13.4709 99.8846 13.4709C99.3519 13.4709 98.7944 13.7656 98.6381 14.3196H98.56V13.5455H97.2106V19H98.5884V15.907C98.5955 15.3033 99.0465 14.7315 99.6999 14.7315C99.9236 14.7315 100.133 14.8026 100.208 14.8452L100.637 13.6484Z" fill="white"/>
<path d="M103.55 19.103C104.967 19.103 105.677 18.3004 105.876 17.5511L104.64 17.2173C104.495 17.6222 104.197 17.9737 103.54 17.9737C102.755 17.9737 102.329 17.4837 102.24 16.674H105.933V16.0952C105.933 14.3445 104.878 13.4744 103.493 13.4744C101.86 13.4744 100.908 14.6783 100.908 16.3437C100.908 18.0483 101.913 19.103 103.55 19.103ZM103.483 14.593C104.207 14.593 104.626 15.0831 104.626 15.7259H102.279C102.425 15.0085 102.851 14.593 103.483 14.593Z" fill="white"/>
<path d="M111.27 15.0263C111.093 14.0391 110.415 13.4744 109.136 13.4744C107.762 13.4744 106.835 14.1172 106.835 15.1754C106.835 16.0455 107.467 16.5178 108.344 16.7273L109.303 16.9439C109.651 17.022 109.967 17.1286 109.967 17.505C109.967 17.821 109.573 18.0803 109.04 18.0803C108.504 18.0803 108.089 17.8033 107.957 17.3061L106.64 17.4553C106.853 18.4851 107.613 19.103 108.98 19.103C110.336 19.103 111.381 18.478 111.381 17.3487C111.381 16.4716 110.756 16.0597 109.917 15.875L108.905 15.6584C108.501 15.5696 108.202 15.3956 108.202 15.0866C108.202 14.7315 108.614 14.5043 109.079 14.5043C109.608 14.5043 109.946 14.7955 110.017 15.1541L111.27 15.0263Z" fill="white"/>
<path d="M114.951 13.5455H113.999V12.3807H112.622V13.5455H111.943V14.5682H112.622V17.5405C112.622 18.4993 113.339 19.071 114.166 19.071C114.671 19.071 115.015 18.9751 115.118 18.9325L114.901 17.8707C114.809 17.8956 114.678 17.9134 114.55 17.9134C114.248 17.9134 113.999 17.8388 113.999 17.331V14.5682H114.951V13.5455Z" fill="white"/>
<path d="M119.436 13.6484C119.266 13.549 118.968 13.4709 118.683 13.4709C118.151 13.4709 117.593 13.7656 117.437 14.3196H117.359V13.5455H116.009V19H117.387V15.907C117.394 15.3033 117.845 14.7315 118.499 14.7315C118.722 14.7315 118.932 14.8026 119.007 14.8452L119.436 13.6484Z" fill="white"/>
<path d="M121.817 19.2308C121.572 19.8771 121.363 20.0938 120.692 19.902L120.379 20.9886C120.592 21.0703 120.834 21.1271 121.135 21.1271C122.18 21.1271 122.719 20.4489 122.954 19.8132L125.258 13.5455H123.827L122.631 17.1392H122.57L121.37 13.5455H119.939L121.92 18.9574L121.817 19.2308Z" fill="white"/>
</svg>
